<svg width="204" height="55.322555442877196" viewBox="0 0 370 100.33992898953217" class="css-1j8o68f"><defs id="SvgjsDefs1360"></defs><g id="SvgjsG1361" featurekey="UFHKJ9-0" transform="matrix(0.34923320674055897,0,0,0.34923320674055897,-2.2824347889477408,-2.1949409757725857)" fill="#ffe98a"><g xmlns="http://www.w3.org/2000/svg"><g><defs><rect id="b" x="7" y="6.5" width="286" height="287.1"></rect></defs><clipPath id="a"><use xmlns:xlink="http://www.w3.org/1999/xlink" xlink:href="#b" style="" overflow="visible"></use></clipPath><g style="clip-path:url(#a);"><path d="M150,198.8c26.1,0,47.2,21.2,47.2,47.4s-21.1,47.4-47.2,47.4s-47.2-21.2-47.2-47.4S123.9,198.8,150,198.8z"></path><path d="M198.7,152.9c-0.1-1.1-0.1-2.2-0.1-3.3c0.1-12.4-4.5-24.4-13.3-33.2l-2-2c-8.7-8.7-20.5-13.4-32.8-13.3     c-0.2,0-0.5,0-0.7,0s-0.5,0-0.7,0c-12.3-0.2-24.1,4.6-32.8,13.3l-2,2c-8.8,8.8-13.3,20.8-13.3,33.2c0,1.1,0,2.2-0.1,3.3     c-1.3,23.3-19.8,42.4-43.1,44.3c-29.3,2.5-53.5-21.9-51.1-51.3c1.9-23.3,21-41.8,44.1-43.2c1-0.1,2.2-0.1,3.2-0.1     c12.4,0.1,24.3-4.5,33.1-13.3l2-2c8.8-8.8,13.3-20.8,13.3-33.2c0-1.6,0.1-3.3,0.2-4.9c2.1-22.9,20.8-41.1,43.7-42.8     C174,4.5,197,26.4,197,53.6c0,0.2,0,0.5,0,0.7c-0.2,12.3,4.6,24.2,13.3,32.9l2,2c8.8,8.8,20.7,13.4,33.1,13.3c1,0,2.1,0,3.2,0.1     c23.3,1.3,42.2,19.9,44.1,43.2c2.5,29.4-21.8,53.7-51.1,51.3C218.5,195.3,200.1,176.1,198.7,152.9z"></path></g></g></g></g><g id="SvgjsG1362" featurekey="XAPJzK-0" transform="matrix(6.350317448043694,0,0,6.350317448043694,111.10956102326001,-31.911390804403908)" fill="#ffffff"><path d="M2.54 6 l4 0 c0.6 0 0.6 2.28 0 2.28 l-2.86 0 l0 3.64 l2 0 c0.6 0 0.6 2.3 0 2.3 l-2 0 l0 5.34 c0 0.6 -2.28 0.6 -2.28 0 l0 -12.46 c0 -1.1 0 -1.1 1.14 -1.1 z M9.4 19.56 l0 -13.14 c0 -0.6 2.28 -0.6 2.28 0 l0 13.14 c0 0.6 -2.28 0.6 -2.28 0 z M21.02 8.82 c0.06 0.22 0.02 8.34 -0.06 8.64 c-0.36 1.54 -1.44 2.54 -3.14 2.54 l-0.52 0 c-1.68 0 -2.76 -1 -3.14 -2.54 c-0.08 -0.3 -0.1 -8.42 -0.06 -8.64 c0.28 -1.68 1.32 -2.78 3.2 -2.82 l0.52 0 c1.9 0.04 2.92 1.14 3.2 2.82 z M17 17.6 c0.34 0.18 0.78 0.18 1.12 0 c0.58 -0.28 0.68 -0.98 0.7 -1.46 l0 -6.26 c0 -0.48 -0.12 -1.18 -0.7 -1.46 c-0.34 -0.18 -0.78 -0.18 -1.12 0 c-0.58 0.28 -0.7 0.98 -0.7 1.46 l0 6.26 c0.02 0.48 0.12 1.18 0.7 1.46 z M28.58 13.6 l0 -7.18 c0 -0.6 2.2 -0.6 2.2 0 l0 12.74 c0 1 -1.92 1.02 -2.12 0.52 l-3 -7.36 l0 7.24 c0 0.6 -2.22 0.6 -2.22 0 l0 -12.5 c0 -1.56 1.9 -1.08 2.2 -0.48 z M38.68 6.42 l2.08 12.7 c0.16 1 -2.1 1.1 -2.22 0.38 l-0.4 -2.4 l-2.34 0 l-0.4 2.4 c-0.1 0.6 -2.38 0.62 -2.22 -0.38 l2.1 -12.7 c0.1 -0.6 3.32 -0.54 3.4 0 z M37.76 14.84 l-0.78 -4.78 l-0.8 4.78 l1.58 0 z"></path></g></svg>